<svg xmlns="http://www.w3.org/2000/svg" width="37" height="50" viewBox="0 0 37 50" fill="none">
<path d="M18.5401 47.9092C18.5147 47.9354 18.4899 47.9611 18.4656 47.9861C18.4414 47.9611 18.4165 47.9354 18.3912 47.9092C17.8922 47.393 17.1776 46.6404 16.3194 45.6988C14.602 43.8145 12.3144 41.1789 10.0291 38.1702C7.74146 35.1583 5.47151 31.7924 3.77739 28.4467C2.07488 25.0844 0.999988 21.8314 0.999988 19.0218C0.999988 9.49666 8.78831 1.78809 18.4656 1.78809C28.143 1.78809 35.9313 9.49666 35.9313 19.0218C35.9313 21.8314 34.8564 25.0844 33.1539 28.4467C31.4598 31.7924 29.1898 35.1583 26.9021 38.1702C24.6169 41.1789 22.3293 43.8145 20.6118 45.6988C19.7536 46.6404 19.0391 47.393 18.5401 47.9092ZM28.4733 19.0218C28.4733 16.1106 27.5446 13.4433 25.8016 11.4909C24.048 9.52669 21.5209 8.34534 18.4656 8.34534C12.2449 8.34534 8.37335 13.3952 8.37335 19.0218C8.37335 24.851 13.5049 28.811 18.4656 28.811C21.0103 28.811 23.5006 27.6724 25.3473 25.9171C27.1968 24.1592 28.4733 21.7121 28.4733 19.0218Z" fill="#F95738" stroke="white" stroke-width="2"/>
<path d="M27.8388 18.5715C27.8388 24.0437 23.4026 28.4799 17.9304 28.4799C12.4581 28.4799 8.02197 24.0437 8.02197 18.5715C8.02197 13.0992 12.4581 8.66309 17.9304 8.66309C23.4026 8.66309 27.8388 13.0992 27.8388 18.5715Z" fill="white"/>
</svg>