<svg xmlns="http://www.w3.org/2000/svg" viewBox="0 0 200.23 100"><defs><style>.cls-1{fill:#f95738;}</style></defs><title>자산 2</title><g id="레이어_2" data-name="레이어 2"><g id="레이어_1-2" data-name="레이어 1"><path class="cls-1" d="M62.34,11H37.06V1.72A1.72,1.72,0,0,0,35.34,0H28.73A1.72,1.72,0,0,0,27,1.72V11H1.72A1.72,1.72,0,0,0,0,12.75v5.73A1.72,1.72,0,0,0,1.72,20.2H23.46L1.17,97.8A1.73,1.73,0,0,0,2.82,100H9.66a1.71,1.71,0,0,0,1.65-1.25L32,26.8l20.72,72A1.73,1.73,0,0,0,54.41,100h6.83a1.73,1.73,0,0,0,1.66-2.2L40.5,20.2H62.34a1.72,1.72,0,0,0,1.73-1.72V12.75A1.72,1.72,0,0,0,62.34,11Z"/><path class="cls-1" d="M98.71,42.44H86.11V5a1.72,1.72,0,0,0-1.72-1.72H77.77A1.72,1.72,0,0,0,76.05,5V98.28A1.72,1.72,0,0,0,77.77,100h6.62a1.72,1.72,0,0,0,1.72-1.72V51.61h12.6a1.72,1.72,0,0,0,1.73-1.72V44.16A1.72,1.72,0,0,0,98.71,42.44Z"/><path class="cls-1" d="M195.06,69.86c-3.35-2.91-7.94-4.39-13.64-4.39h-54c-5.7,0-10.28,1.48-13.64,4.39s-5.17,7.3-5.17,12.87,1.74,9.9,5.17,12.88,7.94,4.39,13.64,4.39h54c5.7,0,10.29-1.48,13.64-4.39s5.17-7.31,5.17-12.88S198.49,72.83,195.06,69.86Zm-13.64,21h-54c-3.29,0-5.58-.71-6.81-2.11a8.71,8.71,0,0,1-1.94-6,8.69,8.69,0,0,1,1.94-6c1.23-1.4,3.52-2.11,6.81-2.11h54c3.29,0,5.58.71,6.81,2.11a8.65,8.65,0,0,1,1.94,6,8.66,8.66,0,0,1-1.94,6C187,90.11,184.71,90.82,181.42,90.82Z"/><path class="cls-1" d="M110.89,56.46H198a1.72,1.72,0,0,0,1.72-1.72V49A1.72,1.72,0,0,0,198,47.28H159.45v-9h37.41a1.72,1.72,0,0,0,1.72-1.73V5a1.72,1.72,0,0,0-1.72-1.72H112A1.73,1.73,0,0,0,110.26,5V36.55A1.73,1.73,0,0,0,112,38.28h37.4v9h-38.5A1.72,1.72,0,0,0,109.16,49v5.73A1.72,1.72,0,0,0,110.89,56.46Zm77.63-44V29.1H120.33V12.49Z"/></g></g></svg>