<svg xmlns="http://www.w3.org/2000/svg" viewBox="0 0 697.64 100"><defs><style>.cls-1{fill:#f95738;}</style></defs><title>logo_eng</title><g id="레이어_2" data-name="레이어 2"><g id="레이어_1-2" data-name="레이어 1"><path class="cls-1" d="M29.58,16.64a33.9,33.9,0,0,1,18-4.81,29.17,29.17,0,0,1,17.17,5A29.49,29.49,0,0,1,75.29,30L87,24.58a33.56,33.56,0,0,0-7.86-12A43.37,43.37,0,0,0,65.6,3.51,44.35,44.35,0,0,0,47.59,0,47.91,47.91,0,0,0,28.54,3.71a44.63,44.63,0,0,0-15,10.46A49.06,49.06,0,0,0,3.58,30,54.18,54.18,0,0,0,0,50.06,53.84,53.84,0,0,0,3.58,70a49.06,49.06,0,0,0,9.94,15.87A44.42,44.42,0,0,0,28.61,96.29a48,48,0,0,0,19,3.71,44.35,44.35,0,0,0,18-3.51,43.22,43.22,0,0,0,13.53-9.11,33.44,33.44,0,0,0,7.86-12l-11.7-5.33A29.63,29.63,0,0,1,64.76,83.16a29.16,29.16,0,0,1-17.17,5,33.81,33.81,0,0,1-18-4.81A33,33,0,0,1,17.3,70a42.82,42.82,0,0,1-4.43-19.9A43.12,43.12,0,0,1,17.3,30,33.1,33.1,0,0,1,29.58,16.64Z"/><polygon class="cls-1" points="165.54 44.73 117.03 44.73 117.03 1.56 104.16 1.56 104.16 98.44 117.03 98.44 117.03 56.44 165.54 56.44 165.54 98.44 178.41 98.44 178.41 1.56 165.54 1.56 165.54 44.73"/><path class="cls-1" d="M225.22,1.56,190.5,98.44h13.65l7.94-22.63h41.35l7.93,22.63H275L240.3,1.56ZM216.12,64l16.64-47.81L249.27,64Z"/><polygon class="cls-1" points="332.23 48.91 298.95 1.56 287.12 1.56 287.12 98.44 299.99 98.44 299.99 24.85 331.59 69.83 332.63 69.83 364.1 25.52 364.1 98.44 376.97 98.44 376.97 1.56 365.27 1.56 332.23 48.91"/><path class="cls-1" d="M479.64,14.17A47.46,47.46,0,0,0,464,3.71a52.11,52.11,0,0,0-38.62,0,47.62,47.62,0,0,0-15.6,10.4A48.84,48.84,0,0,0,399.27,30a51.37,51.37,0,0,0-3.83,20,51.3,51.3,0,0,0,3.83,20,49.52,49.52,0,0,0,10.54,15.94,47.31,47.31,0,0,0,15.6,10.46,52.11,52.11,0,0,0,38.62,0,47.46,47.46,0,0,0,15.61-10.46,49.66,49.66,0,0,0,10.53-15.94,51.3,51.3,0,0,0,3.83-20A50.84,50.84,0,0,0,490.17,30,49.89,49.89,0,0,0,479.64,14.17ZM478.4,64.83a38.74,38.74,0,0,1-7.6,12.22,34.59,34.59,0,0,1-11.51,8.19,37.79,37.79,0,0,1-29.13,0,34.49,34.49,0,0,1-11.51-8.19A38.59,38.59,0,0,1,411,64.83a40.45,40.45,0,0,1-2.73-14.9A39.88,39.88,0,0,1,411,35.11,38.76,38.76,0,0,1,418.65,23a34.49,34.49,0,0,1,11.51-8.19,37.67,37.67,0,0,1,29.13,0A34.59,34.59,0,0,1,470.8,23a38.91,38.91,0,0,1,7.6,12.16,39.88,39.88,0,0,1,2.73,14.82A40.45,40.45,0,0,1,478.4,64.83Z"/><polygon class="cls-1" points="574.11 73.24 523.26 1.56 512.47 1.56 512.47 98.44 525.34 98.44 525.34 25.94 576.19 98.44 586.98 98.44 586.98 1.56 574.11 1.56 574.11 73.24"/><path class="cls-1" d="M653.17,47.07V58.13h31.6v.52A28,28,0,0,1,680.54,74a29.58,29.58,0,0,1-11.38,10.4,33.42,33.42,0,0,1-15.86,3.77A33.07,33.07,0,0,1,622.93,70a42.34,42.34,0,0,1-4.48-19.9,43.12,43.12,0,0,1,4.42-20,33.05,33.05,0,0,1,12.29-13.4,33.86,33.86,0,0,1,18-4.81,29.7,29.7,0,0,1,17.36,5,29.22,29.22,0,0,1,10.59,13.33l11.45-5.59a33.59,33.59,0,0,0-7.87-12,43.2,43.2,0,0,0-13.52-9.1,44.38,44.38,0,0,0-18-3.51,47.84,47.84,0,0,0-19,3.71,44.44,44.44,0,0,0-15,10.46,48.91,48.91,0,0,0-10,15.87,54.38,54.38,0,0,0-3.58,20A54,54,0,0,0,609.15,70a48.4,48.4,0,0,0,10,15.87,45.06,45.06,0,0,0,15.15,10.46,49.72,49.72,0,0,0,36,.65A41.52,41.52,0,0,0,684.51,88a42.24,42.24,0,0,0,9.62-14,46.09,46.09,0,0,0,3.51-18.33V47.07Z"/></g></g></svg>