<svg xmlns="http://www.w3.org/2000/svg" viewBox="0 0 74.17 100"><defs><style>.cls-1{fill:#fff;}.cls-2{fill:#79c16f;}.cls-3{fill:#f95738;}</style></defs><title>logo_mascot</title><g id="레이어_2" data-name="레이어 2"><g id="레이어_1-2" data-name="레이어 1"><circle class="cls-1" cx="33.21" cy="49.35" r="28"/><polygon class="cls-1" points="20.82 73.33 20.82 96.76 33.63 96.76 33.63 93.07 26.25 85.69 28.1 74.63 20.82 73.33"/><polygon class="cls-1" points="38.82 78.35 42.85 96.76 55.76 94.91 57.61 91.22 53.92 87.54 50.8 86.96 48.38 76.47 38.82 78.35"/><path class="cls-1" d="M26.25,11.92S20.72,2.7,15.19,2.7A65.29,65.29,0,0,0,2.28,4.55s5.53,9.22,11.06,11.06S26.25,11.92,26.25,11.92Z"/><path class="cls-2" d="M32.2,10.08l-3.42,1.06C25.24,7.33,21.58,2.65,16.69.8,11.31-1.24,6,1,1,3.25A2.11,2.11,0,0,0,.26,6.09c2.59,4.45,6.58,9.12,11.68,10.73C18.56,18.9,27,16.05,33.3,14.08,35.84,13.28,34.76,9.28,32.2,10.08ZM16.3,13.22C11.38,13,7.76,9.84,5.1,6c5-2,9.48-2.64,14.26,1.51a63.93,63.93,0,0,1,4.87,4.87A30.19,30.19,0,0,1,16.3,13.22Z"/><path class="cls-3" d="M56.1,29.91C45.22,16.69,28.18,15.75,14.57,25.28a1.64,1.64,0,0,0-.24.21l-.18.11c-14,11.22-15.06,30-2.72,43.09a30.71,30.71,0,0,0,44.76,0C66.6,57.79,65.3,41.09,56.1,29.91Zm-.8,33.37a26.59,26.59,0,0,1-39.56,3.85C3.69,55.93,4.31,39,16.87,28.73,28.08,21,41.66,20.67,51.48,30.94,59.65,39.49,62.52,53.25,55.3,63.28Z"/><path class="cls-3" d="M36,20.11q-.6-7-1.6-13.92C34,3.56,30,4.68,30.35,7.3q.9,6.39,1.45,12.81c.23,2.64,4.38,2.67,4.15,0Z"/><path class="cls-3" d="M18.44,75.33c.1,4,.49,8-.07,12a32.86,32.86,0,0,0-.24,9.13c.28,1.87,1,2.84,2.9,3.23,2.74.56,6.37.29,9.15.33,4.68.07,7.39-1.51,6.22-6.65a6.91,6.91,0,0,0-3-4.35c-4.41-3.21-3.6-7-3.12-11.85.27-2.65-3.88-2.63-4.15,0-.36,3.65-1.56,8.77.72,12a14.09,14.09,0,0,0,3,2.48c2.5,2.06,4,4.38-.39,4.18-1.82-.09-4.67.3-6.33-.28s-.62.17-.87-1.55a17.36,17.36,0,0,1,0-3.53c.16-2.42.75-4.63.66-7.06-.11-2.67-.22-5.35-.28-8s-4.22-2.67-4.15,0Z"/><path class="cls-3" d="M44.17,73.6c.77,3.49,1.61,7,2.43,10.45.34,1.45.39,4,1.84,4.87s6.08-.61,6.76,1.07c.78,1.94-3,3.51-4.14,3.78-2,.46-5.11,1.22-7.25.82L45.26,96c-1.17-2.81-1.22-6.4-1.73-9.41L41.72,76c-.45-2.62-4.45-1.51-4,1.11l2.12,12.42c.37,2.16.15,7,2,8.55,3,2.62,13.5-.53,16.19-2.53,3.28-2.43,3.24-6.56-.16-8.79-1.72-1.13-5.57-.73-6.67-1.84-.86-.87-1.09-4.22-1.37-5.43-.55-2.32-1.09-4.64-1.61-7-.58-2.6-4.58-1.5-4,1.11Z"/><path class="cls-3" d="M36.62,56.65l-.19-6.45c-.07-2.66-4.22-2.67-4.14,0l.18,6.45c.08,2.66,4.23,2.67,4.15,0Z"/><path class="cls-3" d="M52,56.65l-.18-6.45c-.08-2.66-4.23-2.67-4.15,0l.18,6.45c.08,2.66,4.23,2.67,4.15,0Z"/><path class="cls-1" d="M71.29,71.22a4.78,4.78,0,0,1-2.45,1.08,3.7,3.7,0,0,1-2.59-.6,4.11,4.11,0,0,1-1.73-3.3A4.78,4.78,0,0,1,66,64.94a2.28,2.28,0,0,1,2.1-.78c.86.16,1.76.07,2.45.72a4.27,4.27,0,0,1,.56.71,5.91,5.91,0,0,1,1,3A3.87,3.87,0,0,1,71.29,71.22Z"/><path class="cls-3" d="M72.32,63.75a5.65,5.65,0,0,0-8.11.07,6.54,6.54,0,0,0-.31,8.49,6.06,6.06,0,0,0,7.93,1,1.75,1.75,0,0,0,.93-.65,1.83,1.83,0,0,0,.65-1A7.12,7.12,0,0,0,72.32,63.75Zm-5.15,3c1.51-1.9,3.84,1.53,2.66,3C67.7,71.53,65.68,68.6,67.17,66.72Z"/><path class="cls-1" d="M26.92,78.09c.33-2.25.88-4.56,1-6.82,0-.69-.23-1.34-.23-2,0-1,.3-2.12.37-3.17q.06-1,.06-2c0-.48-.28-1.35-.06-1.79s1.57-1,2.22-1.44c1.16-.82,2.44-1.53,3.6-2.33A31.61,31.61,0,0,1,39,55.43a2.73,2.73,0,0,1,1.06-.28,2.88,2.88,0,0,1,1.05.24L50.77,59c1.4.52,2.3,1.19,3.8.7a30.3,30.3,0,0,0,4-2.14c.64-.31,6-2.94,6-3.14A70.77,70.77,0,0,1,65,77.65a1.85,1.85,0,0,1-.32.92,2.82,2.82,0,0,1-1,.69c-3.71,1.88-8,3.44-10.4,6.24a.59.59,0,0,1-.33.24.83.83,0,0,1-.44-.08q-7.06-2.94-14.38-5.51a2.08,2.08,0,0,0-.74-.15,1.93,1.93,0,0,0-.79.25,51.57,51.57,0,0,0-9.78,6.35C26.09,83.83,26.5,80.93,26.92,78.09Z"/><path class="cls-2" d="M66.6,53.82a2.08,2.08,0,0,0-3-1.24c-4.43,3.2-9.42,5-14.64,3.48-5-1.47-7.87-4.09-12.75-1.5-2.66,1.41-8.64,4.11-10,6.91-.59,1.23-.11,3.3-.18,4.6a103.15,103.15,0,0,1-1.06,11.47c0,.07,0,.13,0,.2s-.06.23-.08.35a30.63,30.63,0,0,0,0,9.07c.25,1.72,2.4,1.75,3.46.91,2.95-2.33,6.83-5.8,10.51-5.48,3.47.29,7.58,2.91,10.81,4.1,5.07,1.86,4.7-.12,9.45-2.86,3.16-1.83,6.71-2.28,8-5.9C69.52,70.89,67.78,61,66.6,53.82ZM63.32,74.74c.25,2.09-.6,3.31-2.53,3.65a37,37,0,0,1-7.16,4,1,1,0,0,0-.53,1.25c-1.18-.49-2.36-1-3.55-1.44C46.06,80.82,40.71,77.5,36.88,78c-2.79.36-5.72,2.46-8.29,4.53a21.67,21.67,0,0,1,.32-3.85s0,0,0,0A65.09,65.09,0,0,0,30,71.27c.11-2-.61-5.24.2-7.21.68-1.63,2.85-2.55,4.74-3.77,3.3-2.13,4.24-2.76,8.06-2,4.38.86,8,4.35,12.63,3.16A31.53,31.53,0,0,0,63,57.88a71.14,71.14,0,0,1,.67,11C63.65,70.85,63.53,72.8,63.32,74.74Z"/><path class="cls-1" d="M30.84,70.25A5.79,5.79,0,0,1,30.48,75a3,3,0,0,1-1.1,1.31,3.55,3.55,0,0,1-1.29.32,29.61,29.61,0,0,1-3.12.14,3.12,3.12,0,0,1-1.06-.13,2.44,2.44,0,0,1-.86-.55,4.85,4.85,0,0,1-1.24-5,5.68,5.68,0,0,1,4.42-3.5A4.77,4.77,0,0,1,30.84,70.25Z"/><path class="cls-3" d="M32.84,69.7l-.09-.19c0-.1-.07-.2-.12-.3C28.89,61.93,17.46,67,19.79,74.6a6.18,6.18,0,0,0,3.07,3.85c1.65.77,3.92.45,5.67.22C32.57,78.12,34.05,73.16,32.84,69.7Zm-3.91,3.61c-.29,1-.49,1.23-1.47,1.32-1.68.15-3.5.5-3.78-1.65a2.87,2.87,0,0,1,5.24-1.88A3.78,3.78,0,0,1,28.93,73.31Z"/></g></g></svg>