<svg xmlns="http://www.w3.org/2000/svg" xmlns:xlink="http://www.w3.org/1999/xlink" viewBox="0 0 119.22 100"><defs><style>.cls-1{fill:#ff9f1c;}.cls-2{fill:#f95738;}.cls-3{fill:url(#무제_그라디언트_25);}.cls-4{fill:#ff7769;}.cls-5{fill:#ffbf69;}</style><linearGradient id="무제_그라디언트_25" y1="50" x2="119.22" y2="50" gradientUnits="userSpaceOnUse"><stop offset="0" stop-color="#79c16f"/><stop offset="0.26" stop-color="#fe9420"/><stop offset="1" stop-color="#f95738"/></linearGradient></defs><title>logo_chamong</title><g id="레이어_2" data-name="레이어 2"><g id="레이어_1-2" data-name="레이어 1"><path class="cls-1" d="M91.49,83.7a53.64,53.64,0,0,1-15.66-6.29A89.08,89.08,0,0,1,59.49,65.18,100.7,100.7,0,0,1,48.23,52.82L47.6,52a79,79,0,0,1-6.26-9.7,52.17,52.17,0,0,1-5.27-13.38c-.14-.64-.27-1.29-.44-2.06C30.1,39.36,30.46,59.52,45.1,74.13c.45.45.91.89,1.38,1.33A42.68,42.68,0,0,0,75,86.89a42.15,42.15,0,0,0,16.91-3C91.65,83.76,91.57,83.72,91.49,83.7Z"/><path class="cls-2" d="M109.09,64a40.13,40.13,0,0,0-3.7-11.31,74.57,74.57,0,0,0-8.92-14c-1-1.21-2-2.41-3-3.58a1.28,1.28,0,0,0-1.12-.48c-2.31.09-4.63.15-6.94.24-.45,0-.65-.11-.63-.6.1-2.38.17-4.77.27-7.15a.78.78,0,0,0-.27-.71c-.59-.5-1.16-1-1.76-1.51a83.16,83.16,0,0,0-11.92-8.37A49.61,49.61,0,0,0,58,11a21.53,21.53,0,0,0-8.75-.47,9.91,9.91,0,0,0-7.87,6,12.74,12.74,0,0,0-1,5.55,28.5,28.5,0,0,0,1.68,9.29A59.6,59.6,0,0,0,48.92,45c.78,1.18,1.59,2.34,2.43,3.47,1.47,2,3,3.93,4.64,5.81a2,2,0,0,0,1.83.82c2.15-.12,4.3-.17,6.45-.24.68,0,.65,0,.62.64-.09,2.37-.16,4.73-.25,7.1a.83.83,0,0,0,.33.7,89.25,89.25,0,0,0,10.86,8.19,55.18,55.18,0,0,0,14.23,6.66,23.67,23.67,0,0,0,10.1,1A10.18,10.18,0,0,0,109,70.91,19.1,19.1,0,0,0,109.09,64Zm-5.3,10.1-2.86-1.66L82.45,61.67,72.64,56a.8.8,0,0,1-.44-.83c0-2.35,0-4.71,0-7.06,0-.54-.16-.71-.7-.7-2.32,0-4.63,0-7,0a.88.88,0,0,1-.89-.51l-3-5.28L48.72,20.9,46,16.1c-.07-.13-.21-.25-.13-.5L48.24,17q7.26,4.22,14.51,8.44c4.5,2.61,9,5.26,13.5,7.83a1.86,1.86,0,0,1,1.16,2.06c-.08,1.09-.08,2.17-.07,3.26s0,2.06,0,3.09c0,.53.2.68.7.68,2.32,0,4.63,0,7,0a1,1,0,0,1,1,.59q5.4,9.44,10.83,18.85l6.64,11.52.38.69Z"/><path class="cls-3" d="M75.24,100A55.53,55.53,0,0,1,37.52,85.81a53.52,53.52,0,0,1-15.6-24.1A54,54,0,0,1,19.5,49.43c-.17-2.14-.21-4.29-.18-6.45,0-.61,0-.61-.55-.36C12.65,45.4,7,44.53,1.8,40.39c-.51-.41-1-.87-1.53-1.27s-.32-.5,0-.81A29.74,29.74,0,0,0,3,35.15a17.59,17.59,0,0,0,3-8c.4-2.77.49-5.57.86-8.35a22.16,22.16,0,0,1,4.24-11A19.39,19.39,0,0,1,22.62.33a14.81,14.81,0,0,1,12.65,3.2c.4.31.79.63,1.16,1,.21.19.35.16.55,0A21.09,21.09,0,0,1,48.24.21,37.35,37.35,0,0,1,62.79,1.9a73.25,73.25,0,0,1,22.79,12,100.48,100.48,0,0,1,13,11.77,91,91,0,0,1,12.2,16.16,63.31,63.31,0,0,1,7.19,17,40.45,40.45,0,0,1,1.17,8,25.89,25.89,0,0,1-1.57,10.51,19.62,19.62,0,0,1-5.21,7.49,62.47,62.47,0,0,1-6.76,5.48,55.26,55.26,0,0,1-15.12,7.28,54.72,54.72,0,0,1-10.75,2.13A40.22,40.22,0,0,1,75.24,100Zm-50-55.93A49.83,49.83,0,0,0,43.42,82.64a48.72,48.72,0,0,0,14.91,8.44A49.82,49.82,0,0,0,106,83.26a31.51,31.51,0,0,0,4.16-3.65,17.25,17.25,0,0,0,4.23-10.87,30.35,30.35,0,0,0-.95-8.9,54.7,54.7,0,0,0-6.15-14.52A93.07,93.07,0,0,0,91.36,25.49a93.57,93.57,0,0,0-11.78-9.7,65.31,65.31,0,0,0-17.84-9A30.75,30.75,0,0,0,46,5.86a13,13,0,0,0-7.17,4,59.88,59.88,0,0,0-4.86,6A49.6,49.6,0,0,0,25.24,44.06ZM27.72,7a2.46,2.46,0,0,0-3-2.52,14.5,14.5,0,0,0-8.48,4,17.67,17.67,0,0,0-4.59,8.27A43.49,43.49,0,0,0,10.51,27a15.45,15.45,0,0,1-.6,3.82,15.52,15.52,0,0,1-2.29,4.54,2.43,2.43,0,0,0-.24,2.6,2.52,2.52,0,0,0,4.44.27,19,19,0,0,0,2.3-4.07,20.22,20.22,0,0,0,1.52-7.71,34.19,34.19,0,0,1,1-8.37A13.76,13.76,0,0,1,19,13a9.65,9.65,0,0,1,6.55-3.54A2.5,2.5,0,0,0,27.72,7Z"/><path class="cls-4" d="M60.64,41.6,48.72,20.9,46,16.1c-.07-.13-.21-.25-.13-.5L48.24,17q7.26,4.22,14.51,8.44c4.5,2.61,9,5.26,13.5,7.83a1.86,1.86,0,0,1,1.16,2.06c-.08,1.09-.08,2.17-.07,3.26a181.08,181.08,0,0,1,19.07,0h.06c-1-1.21-2-2.41-3-3.58a1.28,1.28,0,0,0-1.12-.48c-2.31.09-4.63.15-6.94.24-.45,0-.65-.11-.63-.6.1-2.38.17-4.77.27-7.15a.78.78,0,0,0-.27-.71c-.59-.5-1.16-1-1.76-1.51a83.16,83.16,0,0,0-11.92-8.37A49.61,49.61,0,0,0,58,11a21.53,21.53,0,0,0-8.75-.47,9.91,9.91,0,0,0-7.87,6,12.74,12.74,0,0,0-1,5.55,28.5,28.5,0,0,0,1.68,9.29A59.6,59.6,0,0,0,48.92,45q1.17,1.77,2.43,3.48C53.36,45.17,57.1,43.15,60.64,41.6Z"/><path class="cls-5" d="M47.6,52a79,79,0,0,1-6.26-9.7,52.17,52.17,0,0,1-5.27-13.38c-.14-.64-.27-1.29-.44-2.06C30.1,39.36,30.46,59.52,45.1,74.13a2.93,2.93,0,0,1-.05-.29C44,66.4,43.69,58.42,47.6,52Z"/><path class="cls-4" d="M59.71,29.64a13.1,13.1,0,0,1,1.84,1c3.44,2,6.88,4,10.33,6a.74.74,0,0,1,.43.73c0,1.45,0,2.91,0,4.36,0,.38-.13.55-.53.55H67.31a.65.65,0,0,1-.62-.34L59.82,30A1.68,1.68,0,0,1,59.71,29.64Z"/><path class="cls-2" d="M89.85,60.06c-.53-.31-1.06-.59-1.58-.89-3.5-2-7-4.08-10.5-6.11a.8.8,0,0,1-.44-.78c0-1.43,0-2.87,0-4.3,0-.45.16-.6.6-.59,1.43,0,2.87,0,4.3,0a.73.73,0,0,1,.73.43q3.38,5.86,6.76,11.74A.52.52,0,0,1,89.85,60.06Z"/></g></g></svg>